<?xml version="1.0" encoding="UTF-8" standalone="no"?>
<!-- Created with Inkscape (http://www.inkscape.org/) -->

<svg
   width="50mm"
   height="50mm"
   viewBox="0 0 50 50"
   version="1.1"
   id="svg1"
   inkscape:version="1.3 (0e150ed6c4, 2023-07-21)"
   sodipodi:docname="logo.svg"
   inkscape:export-filename="TU Logo.png"
   inkscape:export-xdpi="260.09601"
   inkscape:export-ydpi="260.09601"
   xmlns:inkscape="http://www.inkscape.org/namespaces/inkscape"
   xmlns:sodipodi="http://sodipodi.sourceforge.net/DTD/sodipodi-0.dtd"
   xmlns:xlink="http://www.w3.org/1999/xlink"
   xmlns="http://www.w3.org/2000/svg"
   xmlns:svg="http://www.w3.org/2000/svg">
  <sodipodi:namedview
     id="namedview1"
     pagecolor="#505050"
     bordercolor="#eeeeee"
     borderopacity="1"
     inkscape:showpageshadow="0"
     inkscape:pageopacity="0"
     inkscape:pagecheckerboard="0"
     inkscape:deskcolor="#d1d1d1"
     inkscape:document-units="mm"
     inkscape:zoom="1.3273709"
     inkscape:cx="115.64213"
     inkscape:cy="135.98309"
     inkscape:window-width="1920"
     inkscape:window-height="1001"
     inkscape:window-x="-32000"
     inkscape:window-y="-32000"
     inkscape:window-maximized="0"
     inkscape:current-layer="layer1" />
  <defs
     id="defs1">
    <linearGradient
       id="linearGradient5"
       inkscape:collect="always">
      <stop
         style="stop-color:#8efa00;stop-opacity:1;"
         offset="0"
         id="stop5" />
      <stop
         style="stop-color:#ff2f92;stop-opacity:1;"
         offset="1"
         id="stop4" />
    </linearGradient>
    <linearGradient
       id="linearGradient2"
       inkscape:collect="always">
      <stop
         style="stop-color:#459900;stop-opacity:1;"
         offset="0"
         id="stop2" />
      <stop
         style="stop-color:#0c0099;stop-opacity:1;"
         offset="1"
         id="stop3" />
    </linearGradient>
    <linearGradient
       inkscape:collect="always"
       xlink:href="#linearGradient2"
       id="linearGradient3"
       x1="-9.2545918e-07"
       y1="25.000008"
       x2="50"
       y2="25.000008"
       gradientUnits="userSpaceOnUse" />
    <linearGradient
       inkscape:collect="always"
       xlink:href="#linearGradient5"
       id="linearGradient4"
       gradientUnits="userSpaceOnUse"
       x1="178.39113"
       y1="4360.9409"
       x2="179.1445"
       y2="4172.5986" />
  </defs>
  <g
     inkscape:label="TU WIEN"
     inkscape:groupmode="layer"
     id="layer1"
     style="fill:url(#linearGradient3);fill-opacity:1">
    <path
       id="path3775-5-4-4"
       style="display:inline;mix-blend-mode:normal;fill:#ffffff;fill-opacity:1;fill-rule:evenodd;stroke:none;stroke-width:0.0407681;stroke-linecap:butt;stroke-linejoin:round;stroke-opacity:1"
       d="M 5.052714,-2.55e-6 H 44.947615 C 47.738188,-2.55e-6 50,2.2622376 50,5.0524016 V 44.947176 c 0,2.790666 -2.261812,5.052827 -5.052385,5.052827 H 5.052714 C 2.262151,50.000003 0,47.737842 0,44.947176 V 5.0524016 C 0,2.2622376 2.262151,-2.55e-6 5.052714,-2.55e-6 Z"
       inkscape:connector-curvature="0"
       inkscape:label="Background-white"
       sodipodi:nodetypes="sssssssss" />
    <path
       id="path3775-5-4"
       style="display:inline;mix-blend-mode:normal;fill:url(#linearGradient4);fill-opacity:1;fill-rule:evenodd;stroke:none;stroke-width:0.154084;stroke-linecap:butt;stroke-linejoin:round;stroke-opacity:1"
       d="m 196.73463,4172.5985 h 150.78388 c 10.54705,0 19.09563,8.5502 19.09563,19.0957 v 150.7834 c 0,10.5474 -8.54858,19.0973 -19.09563,19.0973 H 196.73463 c -10.54701,0 -19.09687,-8.5499 -19.09687,-19.0973 v -150.7834 c 0,-10.5455 8.54986,-19.0957 19.09687,-19.0957 z m 61.61728,171.323 v -33.2931 h -6.49988 v 33.2931 z m 44.1927,0 v -5.798 h -15.43075 v -8.0894 h 13.13936 v -5.7993 h -13.13936 v -7.8077 h 15.43075 v -5.7987 h -21.93002 v 33.2931 z m 46.10795,0 v -33.2931 h -6.49926 v 20.3873 l -13.18574,-20.3873 h -5.79865 v 33.2931 h 6.49988 v -20.4343 l 13.18559,20.4343 z m -114.03437,-33.2931 h -6.78031 l -5.19017,20.9958 -6.07846,-20.9958 h -4.86212 l -6.07908,20.9958 -5.14317,-20.9958 h -6.78032 l 8.88464,33.2931 h 5.42361 l 6.12546,-20.2013 6.12545,20.2013 h 5.42361 z m -16.87282,-25.8571 v -67.12 h 20.19827 v 67.12 z m -25.56353,-92.8999 h 70.64822 v 20.1975 h -70.64822 z m 115.81102,93.7274 -1.06888,-0.09 c -18.93554,-1.9772 -33.57722,-17.9766 -33.57722,-37.4358 v -56.2013 h 20.47037 l -0.0325,55.7024 c 0,8.1466 5.66444,15.4735 13.26571,17.4018 0.33406,0.08 0.59338,0.1342 0.93529,0.1945 z m 6.12901,-20.4588 c 0.30755,-0.056 0.53575,-0.093 0.83482,-0.1644 7.60374,-1.9283 13.2688,-9.2552 13.2688,-17.4018 l -0.17458,-55.7024 h 20.60165 v 55.9955 c 0.02,19.4591 -14.75817,35.6427 -33.69587,37.6435 l -0.83113,0.085 -0.004,-20.4558"
       inkscape:connector-curvature="0"
       inkscape:label="TU WIEN"
       transform="matrix(0.26458333,0,0,0.26458333,-46.999991,-1104)" />
  </g>
</svg>
